<svg width="236.1" height="77.101" viewBox="0 0 236.1 77.101" xmlns="http://www.w3.org/2000/svg"><g id="svgGroup" stroke-linecap="round" fill-rule="evenodd" font-size="9pt" stroke="#000" stroke-width="0.25mm" fill="#000" style="stroke:#000;stroke-width:0.25mm;fill:#000">
<path d="M 1.3 75.8 L 1.3 25.4 L 9.3 24.5 L 9.3 75.8 L 1.3 75.8 Z" id="0" vector-effect="non-scaling-stroke"/>
<path stroke="#fe532c" fill="#fe532c" d="M 0.382 9.003 A 5.612 5.612 0 0 0 0 11.1 A 6.774 6.774 0 0 0 0.001 11.172 A 5.214 5.214 0 0 0 1.55 14.95 A 5.175 5.175 0 0 0 3.303 16.119 A 5.612 5.612 0 0 0 5.4 16.5 A 7.326 7.326 0 0 0 5.55 16.498 A 5.665 5.665 0 0 0 9.45 14.95 A 5.218 5.218 0 0 0 10.61 13.384 A 5.252 5.252 0 0 0 11.1 11.1 A 6.293 6.293 0 0 0 11.098 10.921 A 5.047 5.047 0 0 0 9.45 7.25 Q 7.8 5.7 5.4 5.7 A 6.774 6.774 0 0 0 5.329 5.7 A 5.214 5.214 0 0 0 1.55 7.25 A 5.175 5.175 0 0 0 0.382 9.003 Z" id="0" vector-effect="non-scaling-stroke"/>
<path d="M 23.8 75.8 L 23.8 35.5 A 12.017 12.017 0 0 0 23.811 35.175 Q 23.857 32.9 23.3 26.4 L 30.7 25.4 L 31.8 31.8 A 60.686 60.686 0 0 1 36.272 29.081 A 53.411 53.411 0 0 1 37.75 28.3 Q 40.7 26.8 43.8 25.65 A 18.848 18.848 0 0 1 47.225 24.72 A 15.491 15.491 0 0 1 49.8 24.5 A 29.313 29.313 0 0 1 52.686 24.634 Q 54.932 24.856 56.65 25.45 Q 59.4 26.4 61.1 28.6 A 11.265 11.265 0 0 1 62.485 30.97 Q 62.985 32.108 63.334 33.468 A 20.876 20.876 0 0 1 63.55 34.4 A 31.206 31.206 0 0 1 64.007 37.353 Q 64.181 38.94 64.252 40.774 A 68.308 68.308 0 0 1 64.3 43.4 L 64.3 75.8 L 56.3 75.8 L 56.3 44.3 Q 56.3 41.499 56.213 39.265 A 89.109 89.109 0 0 0 56.2 38.95 Q 56.1 36.6 55.35 34.95 Q 54.6 33.3 53.05 32.4 Q 51.954 31.764 50.234 31.577 A 14.271 14.271 0 0 0 48.7 31.5 A 13.31 13.31 0 0 0 45.594 31.884 A 17.685 17.685 0 0 0 43.2 32.65 Q 40.3 33.8 37.5 35.3 A 57.297 57.297 0 0 0 33.424 37.715 A 66.946 66.946 0 0 0 31.8 38.8 L 31.8 75.8 L 23.8 75.8 Z" id="1" vector-effect="non-scaling-stroke"/>
<path d="M 107 26.6 L 105.6 33.7 A 61.342 61.342 0 0 0 102.226 32.754 Q 100.029 32.21 98.15 31.95 Q 94.9 31.5 92.2 31.5 A 11.899 11.899 0 0 0 89.499 31.791 A 8.657 8.657 0 0 0 86.35 33.2 Q 84 34.9 84 37.6 Q 84.1 40 86.1 41.7 A 22.447 22.447 0 0 0 89.081 43.826 A 27.219 27.219 0 0 0 90.75 44.75 Q 93.4 46.1 96.65 47.7 Q 99.9 49.3 102.75 51.3 Q 105.6 53.3 107.4 56.1 Q 109.2 58.9 109.3 62.8 Q 109.214 66.44 107.888 68.991 A 10.028 10.028 0 0 1 107.45 69.75 Q 105.7 72.5 102.95 74.15 Q 100.2 75.8 97 76.45 A 33.467 33.467 0 0 1 93.527 76.976 A 26.56 26.56 0 0 1 91 77.1 Q 87.4 77.1 83.55 76.7 A 41.182 41.182 0 0 1 79.045 75.965 A 53.204 53.204 0 0 1 75.3 75 L 76.8 67.8 A 88.482 88.482 0 0 0 80.972 68.81 Q 82.96 69.238 84.761 69.514 A 53.872 53.872 0 0 0 85 69.55 A 65.245 65.245 0 0 0 87.39 69.863 Q 88.458 69.982 89.385 70.041 A 27.049 27.049 0 0 0 91.1 70.1 Q 92.9 70.1 94.65 69.7 A 13.495 13.495 0 0 0 96.695 69.066 A 11.259 11.259 0 0 0 97.8 68.55 A 6.672 6.672 0 0 0 99.449 67.323 A 6.067 6.067 0 0 0 100.05 66.6 Q 100.9 65.4 100.9 63.9 Q 100.8 61.1 99 59.15 A 15.531 15.531 0 0 0 96.792 57.191 A 21.112 21.112 0 0 0 94.35 55.65 Q 91.5 54.1 88.25 52.55 Q 85 51 82.15 48.95 Q 79.3 46.9 77.4 44.05 A 11.008 11.008 0 0 1 75.796 40.104 A 15.49 15.49 0 0 1 75.5 37 A 9.89 9.89 0 0 1 76.133 33.433 A 9.219 9.219 0 0 1 77.05 31.65 Q 78.6 29.3 81.05 27.75 Q 83.5 26.2 86.45 25.35 A 21.574 21.574 0 0 1 90.569 24.571 A 18.941 18.941 0 0 1 92.2 24.5 A 44.505 44.505 0 0 1 95.225 24.609 Q 96.872 24.721 98.7 24.95 A 51.8 51.8 0 0 1 101.555 25.393 Q 103.122 25.679 104.858 26.079 A 94.417 94.417 0 0 1 107 26.6 Z" id="2" vector-effect="non-scaling-stroke"/>
<path d="M 120.1 75.8 L 120.1 25.4 L 128.1 24.5 L 128.1 75.8 L 120.1 75.8 Z" id="3" vector-effect="non-scaling-stroke"/>
<path stroke="#fe532c" fill="#fe532c" d="M 119.182 9.003 A 5.612 5.612 0 0 0 118.8 11.1 A 6.774 6.774 0 0 0 118.801 11.172 A 5.214 5.214 0 0 0 120.35 14.95 A 5.175 5.175 0 0 0 122.103 16.119 A 5.612 5.612 0 0 0 124.2 16.5 A 7.326 7.326 0 0 0 124.35 16.498 A 5.665 5.665 0 0 0 128.25 14.95 A 5.218 5.218 0 0 0 129.41 13.384 A 5.252 5.252 0 0 0 129.9 11.1 A 6.293 6.293 0 0 0 129.898 10.921 A 5.047 5.047 0 0 0 128.25 7.25 Q 126.6 5.7 124.2 5.7 A 6.774 6.774 0 0 0 124.129 5.7 A 5.214 5.214 0 0 0 120.35 7.25 A 5.175 5.175 0 0 0 119.182 9.003 Z" id="3" vector-effect="non-scaling-stroke"/>
<path d="M 174.8 76.6 L 174 71.8 A 37.589 37.589 0 0 1 171.46 73.426 A 29.646 29.646 0 0 1 169.55 74.45 A 31.962 31.962 0 0 1 166.405 75.776 A 37.792 37.792 0 0 1 164.85 76.3 A 17.479 17.479 0 0 1 161.587 77.003 A 14.959 14.959 0 0 1 159.9 77.1 A 21.309 21.309 0 0 1 153.297 76.125 A 17.019 17.019 0 0 1 145.15 70.45 A 21.514 21.514 0 0 1 141.54 63.6 Q 140.534 60.536 140.11 56.803 A 51.446 51.446 0 0 1 139.8 51 Q 139.8 43.4 142.25 38.3 A 27.027 27.027 0 0 1 144.989 33.744 A 20.931 20.931 0 0 1 148.4 30.15 A 23.756 23.756 0 0 1 154.131 26.614 A 21.622 21.622 0 0 1 156.35 25.8 A 32.052 32.052 0 0 1 160.192 24.867 Q 162.255 24.506 164.141 24.5 A 19.978 19.978 0 0 1 164.2 24.5 A 29.1 29.1 0 0 1 166.77 24.618 A 34.501 34.501 0 0 1 168 24.75 Q 170 25 173.9 26 L 173.9 0.9 L 181.9 0 L 181.9 66.7 Q 181.9 68.1 181.95 69.65 Q 182 71.2 182.15 72.7 A 124.898 124.898 0 0 0 182.451 75.402 A 138.048 138.048 0 0 0 182.5 75.8 L 174.8 76.6 Z M 173.9 64.8 L 173.9 33 Q 170.933 32.176 169.053 31.861 A 18.4 18.4 0 0 0 168.3 31.75 Q 166.3 31.5 164.2 31.5 Q 160.228 31.5 157.329 32.842 A 12.101 12.101 0 0 0 157 33 Q 154 34.5 152.05 37.15 A 17.366 17.366 0 0 0 149.507 42.191 A 20.21 20.21 0 0 0 149.2 43.25 A 28.163 28.163 0 0 0 148.343 48.915 A 32.573 32.573 0 0 0 148.3 50.6 Q 148.3 54.1 149.05 57.6 A 23.072 23.072 0 0 0 150.401 61.892 A 19.853 19.853 0 0 0 151.4 63.9 A 15.614 15.614 0 0 0 153.422 66.702 A 13.061 13.061 0 0 0 155.3 68.4 Q 157.6 70.1 160.8 70.1 A 13.339 13.339 0 0 0 163.968 69.704 A 16.219 16.219 0 0 0 165.35 69.3 A 31.639 31.639 0 0 0 168.613 67.99 A 27.514 27.514 0 0 0 169.7 67.45 A 30.141 30.141 0 0 0 171.882 66.179 A 39.839 39.839 0 0 0 173.9 64.8 Z" id="4" vector-effect="non-scaling-stroke"/><path d="M 232.1 67.9 L 233.6 74.6 Q 231.3 75.3 228.85 75.8 Q 226.4 76.3 223.45 76.7 A 45.058 45.058 0 0 1 218.195 77.092 A 50.368 50.368 0 0 1 217.3 77.1 A 31.515 31.515 0 0 1 211.039 76.497 A 27.288 27.288 0 0 1 208 75.7 Q 203.7 74.3 200.5 71.2 A 19.463 19.463 0 0 1 197.046 66.636 A 25.645 25.645 0 0 1 195.45 63.15 Q 193.6 58.2 193.6 51 A 39.835 39.835 0 0 1 193.993 45.269 A 28.859 28.859 0 0 1 195.4 39.55 A 26.307 26.307 0 0 1 197.773 34.614 A 21.444 21.444 0 0 1 200.35 31.25 Q 203.5 27.9 207.75 26.2 A 24.035 24.035 0 0 1 215.152 24.56 A 28.239 28.239 0 0 1 217 24.5 A 21.296 21.296 0 0 1 221.174 24.89 A 15.873 15.873 0 0 1 225.5 26.4 Q 229.1 28.3 231.45 31.55 A 21.654 21.654 0 0 1 234.209 36.79 A 26.241 26.241 0 0 1 234.95 39.15 A 35.317 35.317 0 0 1 236.09 47.404 A 39.552 39.552 0 0 1 236.1 48.3 L 234.6 52.7 L 202.3 52.7 Q 202.3 55.8 203.1 58.9 Q 203.9 62 205.85 64.5 A 13.9 13.9 0 0 0 209.63 67.826 A 16.816 16.816 0 0 0 210.95 68.55 Q 213.682 69.894 217.579 70.073 A 26.692 26.692 0 0 0 218.8 70.1 Q 221.8 70.1 224.3 69.75 A 58.345 58.345 0 0 0 226.084 69.473 Q 227.494 69.231 228.65 68.95 A 31.635 31.635 0 0 0 231.076 68.26 A 26.901 26.901 0 0 0 232.1 67.9 Z M 202.6 46.3 L 227.8 46.3 A 6.564 6.564 0 0 0 227.786 45.912 Q 227.735 45.075 227.5 43.2 A 17.239 17.239 0 0 0 226.838 40.201 A 21.868 21.868 0 0 0 226.1 38.2 Q 225 35.6 222.7 33.55 A 7.848 7.848 0 0 0 219.138 31.765 A 11.506 11.506 0 0 0 216.6 31.5 A 16.563 16.563 0 0 0 213.661 31.746 Q 211.974 32.051 210.609 32.731 A 9.326 9.326 0 0 0 209.7 33.25 A 15.73 15.73 0 0 0 206.882 35.557 A 13.419 13.419 0 0 0 205.4 37.4 A 16.356 16.356 0 0 0 203.822 40.362 A 13.826 13.826 0 0 0 203.2 42.3 A 30.6 30.6 0 0 0 202.884 43.765 Q 202.6 45.269 202.6 46.3 Z" id="5" vector-effect="non-scaling-stroke"/></g></svg>