<?xml version="1.0" encoding="utf-8"?>
<!-- Generator: Adobe Illustrator 26.0.1, SVG Export Plug-In . SVG Version: 6.00 Build 0)  -->
<svg version="1.1" xmlns="http://www.w3.org/2000/svg" xmlns:xlink="http://www.w3.org/1999/xlink" x="0px" y="0px"
	 viewBox="0 0 4234.19 2353.02" style="enable-background:new 0 0 4234.19 2353.02;" xml:space="preserve">
<style type="text/css">
	.st0{fill:#919191;}
	.st1{fill:#F26722;}
	.st2{fill:#F6905E;}
	.st3{fill:#FFFFFF;}
	.st4{clip-path:url(#SVGID_00000018205964413700964460000008815611190459327383_);}
	.st5{clip-path:url(#SVGID_00000099625628658588921720000004235316687554564750_);}
</style>
<g id="Layer_2">
	<g>
		<g>
			<path class="st0" d="M1670.38,214.62c-411.83,174.33-726.43-95.01-1016.66-19.4c-284.58,74.14-374.97,367.88-157.84,734.1
				c246.73,416.17,100.78,707.96,228.96,1068.43c53.92,151.61,272.34,325.13,456.72,247.82
				c242.16-101.53,258.26-419.38,420.75-683.14c145.83-236.73,454.9-462.38,624.62-653.77c166.3-187.54,379.75-351.37,317.82-630.6
				C2503.74,93.15,2287.86-46.75,1670.38,214.62z"/>
			<path class="st1" d="M2327.28,1329.84c-138.21,226.68-409.58,134.06-638.87,113.81c-449.55-39.69-754.38,557.54-1226.39,248.88
				C-60.6,1350.78-63.43,729.74,456.3,491.12C1910.64-176.57,2452.74,1124.03,2327.28,1329.84z"/>
			<ellipse class="st1" cx="279.73" cy="461.83" rx="30.59" ry="25.63"/>
			<ellipse class="st0" cx="251.91" cy="379.83" rx="42.87" ry="35.92"/>
			<ellipse class="st2" cx="1422.58" cy="146.98" rx="42.87" ry="35.92"/>
			<ellipse class="st2" cx="518.34" cy="1832.09" rx="42.87" ry="35.92"/>
			<path class="st2" d="M340.08,390.73c0,7.76-5.55,14.06-12.4,14.06c-6.85,0-12.4-6.29-12.4-14.06c0-7.76,5.55-14.06,12.4-14.06
				C334.53,376.67,340.08,382.97,340.08,390.73z"/>
			<ellipse class="st1" cx="609.16" cy="1822.99" rx="30.59" ry="25.63"/>
			<path class="st0" d="M567.96,1886.9c0-7.76,5.55-14.06,12.4-14.06c6.85,0,12.4,6.29,12.4,14.06c0,7.76-5.55,14.06-12.4,14.06
				C573.52,1900.95,567.96,1894.66,567.96,1886.9z"/>
			
				<ellipse transform="matrix(0.9546 -0.2979 0.2979 0.9546 -0.3336 408.6375)" class="st0" cx="1340.42" cy="205.41" rx="25.63" ry="30.59"/>
			<path class="st1" d="M1429.41,240.87c-9.14,2.85-18.59-1.37-21.1-9.44c-2.52-8.06,2.85-16.91,11.99-19.77
				c9.14-2.85,18.59,1.37,21.1,9.44C1443.92,229.17,1438.55,238.02,1429.41,240.87z"/>
		</g>
		<g>
			<g>
				<path class="st0" d="M1765.53,1611.68v144.79h-23.52v-144.79h-63.7v-21.32h150.68v21.32H1765.53z"/>
				<path class="st0" d="M1851.77,1705.76c2.78,21.72,17.15,32.58,43.12,32.58c21.23,0,35.52-8.9,42.88-26.71h24.25
					c-6.86,19.76-16.58,32.83-29.15,39.2c-10.94,5.55-23.77,8.33-38.46,8.33c-21.72,0-38.38-5.8-49.98-17.4
					c-11.11-10.94-16.66-25.89-16.66-44.83c0-18.13,6.12-33.16,18.38-45.08c12.25-11.92,28.75-17.88,49.49-17.88
					c20.25,0,36.59,5.31,49,15.92c12.41,10.62,18.62,24.83,18.62,42.63v13.23H1851.77z M1926.98,1665.33
					c-7.51-7.02-17.97-10.54-31.36-10.54c-13.39,0-23.93,3.51-31.6,10.54c-5.88,5.39-9.72,12-11.51,19.84h85.26
					C1936.29,1677.34,1932.7,1670.72,1926.98,1665.33z"/>
				<path class="st0" d="M2074.96,1750.1c-10.78,6.04-23.52,9.07-38.22,9.07c-20.74,0-37.32-5.55-49.73-16.66
					c-12.41-11.11-18.62-25.73-18.62-43.86c0-19.27,6.33-34.87,18.99-46.79c12.66-11.92,30.01-17.88,52.06-17.88
					c13.39,0,25.15,2.86,35.28,8.58c11.27,6.37,19.27,17.56,24.01,33.56l-21.61,9.8c-3.28-11.76-7.82-19.88-13.63-24.38
					c-5.81-4.49-14.04-6.74-24.68-6.74c-15.06,0-26.64,4-34.75,12c-8.1,8-12.15,18.62-12.15,31.85c0,12.25,3.76,21.81,11.3,28.67
					c7.86,7.35,18.91,11.03,33.15,11.03c9.98,0,18.62-2.08,25.9-6.25s12.4-13.27,15.35-27.32l22.59,8.82
					C2095.62,1730.91,2087.21,1743.08,2074.96,1750.1z"/>
				<path class="st0" d="M2208.24,1756.47v-79.62c0-17.31-10.78-25.97-32.34-25.97c-12.25,0-21.77,3.35-28.54,10.04
					c-6.78,6.7-10.17,15.52-10.17,26.46v69.09h-23.52v-166.11h23.52v49.98c10.29-7.19,23.11-10.78,38.46-10.78
					c15.68,0,28.58,3.59,38.71,10.78c11.6,8,17.39,19.44,17.39,34.3v81.83H2208.24z"/>
				<path class="st0" d="M2347.15,1756.47v-76.68c0-16.66-10.78-24.99-32.34-24.99c-12.25,0-21.77,3.23-28.54,9.68
					c-6.78,6.45-10.17,14.91-10.17,25.36v66.64h-23.52v-120.05h23.52v8.08c10.29-7.02,23.11-10.54,38.46-10.54
					c15.68,0,28.58,3.43,38.71,10.29c11.6,7.84,17.4,18.95,17.4,33.32v78.89H2347.15z"/>
				<path class="st0" d="M2503.46,1741.77c-12.58,11.6-29.4,17.4-50.47,17.4s-37.81-5.8-50.22-17.4
					c-12.42-11.59-18.62-26.62-18.62-45.08c0-18.46,6.29-33.52,18.87-45.2c12.58-11.68,29.4-17.52,50.47-17.52
					s37.81,5.84,50.22,17.52c12.41,11.68,18.62,26.75,18.62,45.2C2522.33,1715.15,2516.04,1730.18,2503.46,1741.77z
					 M2486.89,1666.19c-7.94-7.6-19.2-11.39-33.78-11.39c-14.41,0-25.59,3.84-33.54,11.51c-7.94,7.68-11.91,17.8-11.91,30.38
					c0,12.42,4.01,22.46,12.04,30.14c8.02,7.68,19.16,11.51,33.41,11.51c14.25,0,25.42-3.84,33.53-11.51
					c8.11-7.68,12.16-17.72,12.16-30.14C2498.81,1683.95,2494.83,1673.79,2486.89,1666.19z"/>
				<path class="st0" d="M2535.31,1756.47v-166.11h23.52v166.11H2535.31z"/>
				<path class="st0" d="M2690.88,1741.77c-12.58,11.6-29.4,17.4-50.47,17.4c-21.07,0-37.81-5.8-50.22-17.4
					c-12.42-11.59-18.62-26.62-18.62-45.08c0-18.46,6.29-33.52,18.87-45.2c12.58-11.68,29.4-17.52,50.47-17.52
					s37.81,5.84,50.23,17.52c12.41,11.68,18.62,26.75,18.62,45.2C2709.75,1715.15,2703.46,1730.18,2690.88,1741.77z
					 M2674.31,1666.19c-7.94-7.6-19.2-11.39-33.78-11.39c-14.41,0-25.59,3.84-33.53,11.51c-7.94,7.68-11.91,17.8-11.91,30.38
					c0,12.42,4.01,22.46,12.04,30.14c8.02,7.68,19.16,11.51,33.41,11.51s25.42-3.84,33.53-11.51c8.11-7.68,12.16-17.72,12.16-30.14
					C2686.23,1683.95,2682.25,1673.79,2674.31,1666.19z"/>
				<path class="st0" d="M2783,1800.33c-15.68,0-28.58-2.94-38.71-8.82c-13.07-7.35-20.25-21.4-21.56-42.14h23.28
					c1.14,11.27,4.74,19.11,10.78,23.52c5.39,4.08,14.21,6.12,26.46,6.12c14.21,0,24.46-2.53,30.75-7.59
					c6.29-5.06,9.43-12.74,9.43-23.03v-2.21c-11.92,8.66-26.13,12.99-42.63,12.99c-14.54,0-27.11-3.27-37.73-9.8
					c-18.13-11.27-27.2-28.75-27.2-52.43c0-18.46,5.96-33.56,17.88-45.33c11.92-11.76,28.17-17.64,48.75-17.64
					c16.01,0,29.65,4.33,40.92,12.99v-10.29h23.52v111.96c0,17.15-5.72,30.13-17.15,38.96
					C2819.02,1796.08,2803.42,1800.33,2783,1800.33z M2812.12,1667.42c-7.53-8.08-17.61-12.13-30.22-12.13
					c-13.11,0-23.47,3.92-31.08,11.76c-7.62,7.84-11.42,17.8-11.42,29.89c0,12.25,3.52,22.13,10.57,29.65
					c7.04,7.51,17.12,11.27,30.22,11.27c13.6,0,24.2-3.67,31.82-11.02c7.62-7.35,11.43-17.15,11.43-29.4
					C2823.43,1685.51,2819.66,1675.5,2812.12,1667.42z"/>
				<path class="st0" d="M2877.82,1623.68c-5.23,0-8.98-2.92-11.27-8.76v-18.01c2.78-5.84,6.53-8.76,11.27-8.76
					c3.75,0,7.84,2.52,12.25,7.54v20.68C2885.82,1621.25,2881.74,1623.68,2877.82,1623.68z M2866.55,1756.47v-124.46h23.52v124.46
					H2866.55z"/>
				<path class="st0" d="M2926.08,1705.76c2.78,21.72,17.15,32.58,43.12,32.58c21.23,0,35.52-8.9,42.88-26.71h24.25
					c-6.86,19.76-16.58,32.83-29.16,39.2c-10.94,5.55-23.76,8.33-38.46,8.33c-21.72,0-38.38-5.8-49.98-17.4
					c-11.11-10.94-16.66-25.89-16.66-44.83c0-18.13,6.12-33.16,18.38-45.08c12.25-11.92,28.75-17.88,49.49-17.88
					c20.25,0,36.59,5.31,49,15.92c12.41,10.62,18.62,24.83,18.62,42.63v13.23H2926.08z M3001.29,1665.33
					c-7.51-7.02-17.97-10.54-31.36-10.54c-13.39,0-23.93,3.51-31.6,10.54c-5.88,5.39-9.72,12-11.52,19.84h85.26
					C3010.6,1677.34,3007.01,1670.72,3001.29,1665.33z"/>
				<path class="st0" d="M3140.45,1752.55c-9.15,4.74-20.91,7.1-35.28,7.1c-40.02,0-60.03-18.46-60.03-55.37h24.01
					c0,12.74,2.69,21.6,8.08,26.58c5.39,4.98,14.78,7.47,28.17,7.47c20.42,0,30.62-5.19,30.62-15.57c0-6.32-6.71-10.86-20.13-13.62
					c-1.15-0.16-9.31-1.31-24.5-3.45c-27.42-3.93-41.12-15.47-41.12-34.64c0-12.45,5.71-22.03,17.15-28.74
					c9.47-5.73,20.66-8.6,33.57-8.6c38.71,0,58.15,16.83,58.31,50.47h-24.25c0-10.94-2.41-18.54-7.23-22.78
					c-4.82-4.25-13.35-6.37-25.6-6.37c-8.17,0-14.86,1.47-20.09,4.41c-5.23,2.94-7.84,6.78-7.84,11.51
					c0,6.04,6.45,10.13,19.36,12.25c4.25,0.82,12.82,2.29,25.72,4.41c27.11,4.25,40.67,15.92,40.67,35.04
					C3160.05,1736.06,3153.52,1746.02,3140.45,1752.55z"/>
				<path class="st0" d="M3400.15,1678.56c-12.09,6.7-27.11,10.04-45.08,10.04h-56.35v67.87h-23.52v-166.11h82.56
					c44.1,0,66.15,16.58,66.15,49.74C3423.91,1657.09,3415.99,1669.91,3400.15,1678.56z M3359.38,1611.68h-60.66v55.62h60.91
					c11.79,0,21.37-2.29,28.73-6.86c8.02-4.9,12.04-11.6,12.04-20.09C3400.39,1621.23,3386.72,1611.68,3359.38,1611.68z"/>
				<path class="st0" d="M3501.82,1756.47h-17.89l-63.7-119.56h26.93l45.39,87.8l42.18-87.8h25.64L3501.82,1756.47z"/>
				<path class="st0" d="M3602.27,1660.68v95.79h-23.52v-95.79h-24.5v-21.32h24.5v-33.32h23.52v33.32h24.74v21.32H3602.27z"/>
				<path class="st0" d="M3658.86,1756.96c-7.84,0-11.76-2.37-11.76-7.11v-7.1c0-4.74,3.92-7.11,11.76-7.11
					c7.84,0,11.76,2.37,11.76,7.11v7.1C3670.62,1754.6,3666.7,1756.96,3658.86,1756.96z"/>
				<path class="st0" d="M3796.55,1756.47v-166.11h23.52v144.79h104.86v21.32H3796.55z"/>
				<path class="st0" d="M3969.51,1660.68v95.79h-23.52v-95.79h-24.5v-21.32h24.5v-33.32h23.52v33.32h24.74v21.32H3969.51z"/>
				<path class="st0" d="M4108.67,1756.72v-11.76c-11.43,9.47-26.21,14.21-44.34,14.21c-20.58,0-36.92-6.37-49-19.11
					c-11.27-11.76-16.91-26.87-16.91-45.33c0-18.95,5.72-34.3,17.15-46.06c12.08-12.74,28.67-19.11,49.73-19.11
					c17.31,0,31.77,4.58,43.37,13.72v-52.92h23.52v166.36H4108.67z M4097.28,1662.64c-7.59-7.84-18.66-11.76-33.2-11.76
					c-13.23,0-23.56,4.13-30.99,12.37c-7.43,8.25-11.15,18.74-11.15,31.48s3.51,22.95,10.54,30.62c7.51,8.33,18.05,12.5,31.61,12.5
					c13.56,0,24.38-4.08,32.46-12.25c8.08-8.17,12.13-18.46,12.13-30.87C4108.67,1681.18,4104.87,1670.48,4097.28,1662.64z"/>
				<path class="st0" d="M4174.57,1756.96c-7.84,0-11.76-2.37-11.76-7.11v-7.1c0-4.74,3.92-7.11,11.76-7.11
					c7.84,0,11.76,2.37,11.76,7.11v7.1C4186.33,1754.6,4182.42,1756.96,4174.57,1756.96z"/>
			</g>
		</g>
		<g>
			<g>
				<path class="st3" d="M1192.41,462.46c-163.93,0-298.8,124.38-315.39,283.92c-1.16,1.57-1.86,3.52-1.86,5.62v643.23
					c0,5.22,4.23,9.46,9.46,9.46h62.9c5.22,0,9.45-4.23,9.45-9.46V992c58.03,64.28,142.02,104.68,235.45,104.68
					c175.13,0,317.11-141.97,317.11-317.11C1509.51,604.43,1367.54,462.46,1192.41,462.46z M1192.41,1016.34
					c-122.26,0-222.87-92.66-235.45-211.57c-0.88-8.28-1.33-16.68-1.33-25.2c0-8.51,0.45-16.92,1.33-25.2
					c12.58-118.92,113.19-211.57,235.45-211.57c130.76,0,236.77,106.01,236.77,236.78
					C1429.18,910.34,1323.17,1016.34,1192.41,1016.34z"/>
				<path class="st3" d="M1192.41,462.46c-163.93,0-298.8,124.38-315.39,283.92c-1.16,1.57-1.86,3.52-1.86,5.62v643.23
					c0,5.22,4.23,9.46,9.46,9.46h62.9c5.22,0,9.45-4.23,9.45-9.46V992c58.03,64.28,142.02,104.68,235.45,104.68
					c175.13,0,317.11-141.97,317.11-317.11C1509.51,604.43,1367.54,462.46,1192.41,462.46z M1192.41,1016.34
					c-122.26,0-222.87-92.66-235.45-211.57c-0.88-8.28-1.33-16.68-1.33-25.2c0-8.51,0.45-16.92,1.33-25.2
					c12.58-118.92,113.19-211.57,235.45-211.57c130.76,0,236.77,106.01,236.77,236.78
					C1429.18,910.34,1323.17,1016.34,1192.41,1016.34z"/>
			</g>
			<g>
				<g>
					<path class="st3" d="M1678.81,482.12h84v909h-84V482.12z"/>
					<path class="st3" d="M1927.77,735.12h84v306.36c0,74.78,4.03,126.25,12.09,154.38c12.09,40.22,35.17,71.98,69.25,95.3
						c34.06,23.31,74.69,34.97,121.86,34.97s87.19-11.34,120.05-34.06s55.55-52.56,68.05-89.56c8.47-25.33,12.7-79,12.7-161.02
						V735.12h86v322.03c0,90.47-10.56,158.61-31.66,204.44c-21.11,45.83-52.86,81.7-95.27,107.64
						c-42.41,25.92-95.56,38.89-159.47,38.89c-63.92,0-117.28-12.97-160.09-38.89c-42.81-25.94-74.77-62.11-95.86-108.55
						c-21.11-46.44-31.66-116.28-31.66-209.56V735.12z"/>
				</g>
			</g>
			<g>
				<defs>
					<path id="SVGID_1_" d="M2236.36,1426.3c0,0,81.48-45.96,108.4-154.72c26.92-108.77,0-639.83,0-639.83h229.13l-18.19,854.81
						L2236.36,1426.3z"/>
				</defs>
				<clipPath id="SVGID_00000162346085497671591240000005641638900719788720_">
					<use xlink:href="#SVGID_1_"  style="overflow:visible;"/>
				</clipPath>
				<g style="clip-path:url(#SVGID_00000162346085497671591240000005641638900719788720_);">
					<g>
						<path class="st1" d="M1927.81,735.12h84v306.36c0,74.78,4.03,126.25,12.09,154.38c12.09,40.22,35.17,71.98,69.25,95.3
							c34.06,23.31,74.69,34.97,121.86,34.97s87.19-11.34,120.05-34.06s55.55-52.56,68.05-89.56c8.47-25.33,12.7-79,12.7-161.02
							V735.12h86v322.03c0,90.47-10.56,158.61-31.66,204.44c-21.11,45.83-52.86,81.7-95.27,107.64
							c-42.41,25.92-95.56,38.89-159.47,38.89c-63.92,0-117.28-12.97-160.09-38.89c-42.81-25.94-74.77-62.11-95.86-108.55
							c-21.11-46.44-31.66-116.28-31.66-209.56V735.12z"/>
					</g>
				</g>
			</g>
			<g>
				<g>
					<path class="st1" d="M2761.81,492.12h84v243h134v73h-134v583h-84v-583h-115v-73h115V492.12z"/>
					<path class="st1" d="M3095.85,735.12h84v306.36c0,74.78,4.03,126.25,12.09,154.38c12.09,40.22,35.17,71.98,69.25,95.3
						c34.06,23.31,74.69,34.97,121.86,34.97s87.19-11.34,120.05-34.06s55.55-52.56,68.05-89.56c8.47-25.33,12.7-79,12.7-161.02
						V735.12h86v322.03c0,90.47-10.56,158.61-31.66,204.44c-21.11,45.83-52.86,81.7-95.27,107.64
						c-42.41,25.92-95.56,38.89-159.47,38.89c-63.92,0-117.28-12.97-160.09-38.89c-42.81-25.94-74.77-62.11-95.86-108.55
						c-21.11-46.44-31.66-116.28-31.66-209.56V735.12z"/>
					<path class="st1" d="M4185.78,806.09l-54.22,56.03c-44.88-44-88.75-66-131.62-66c-27.25,0-50.58,9.08-70.02,27.2
						c-19.44,18.14-29.14,39.3-29.14,63.47c0,21.38,8.02,41.72,24.08,61.06c16.06,19.75,49.78,42.94,101.16,69.53
						c62.62,32.66,105.17,64.06,127.66,94.25c22.06,30.59,33.11,65.02,33.11,103.27c0,53.94-18.91,99.62-56.69,137.06
						c-37.8,37.44-85.03,56.16-141.72,56.16c-37.8,0-73.89-8.23-108.27-24.69c-34.38-16.47-62.83-39.16-85.33-68.06l53.03-60.25
						c43.06,48.67,88.73,73,137.03,73c33.8,0,62.56-10.89,86.31-32.67s35.62-47.39,35.62-76.84c0-24.2-7.84-45.78-23.5-64.75
						c-15.67-18.55-51.02-41.94-106.05-70.19c-59.06-30.5-99.23-60.61-120.52-90.33c-21.3-29.7-31.94-63.62-31.94-101.78
						c0-49.78,16.94-91.12,50.84-124.05c33.89-32.92,76.7-49.39,128.45-49.39C4064.23,718.12,4124.81,747.45,4185.78,806.09z"/>
				</g>
			</g>
		</g>
	</g>
</g>
<g id="Layer_1">
</g>
</svg>
